<svg width="452" height="518" viewBox="0 0 452 518" fill="none" xmlns="http://www.w3.org/2000/svg">
<path d="M220.876 481.432C221.645 457.009 221.334 444.151 219.92 441.885C218.767 440.039 206.363 432.569 192.355 425.285C178.348 418.002 164.566 410.435 161.728 408.471C158.891 406.506 156.03 404.899 155.371 404.899C154.712 404.899 154.409 422.073 154.699 443.064L155.226 481.229L186.322 499.222C203.425 509.118 217.94 517.306 218.577 517.418C219.214 517.531 220.248 501.337 220.876 481.432Z" fill="#E6E6E6"/>
<path d="M287.99 486.183C299.415 479.592 327.129 463.175 349.576 449.702C372.024 436.228 404.23 417.36 421.145 407.771L451.901 390.337L451.352 351.946C451.051 330.831 450.617 313.555 450.388 313.555C450.16 313.555 434.01 322.738 414.5 333.961C394.99 345.185 378.305 354.368 377.421 354.368C376.537 354.368 375.719 320.478 375.603 279.057C375.486 237.636 374.831 198.754 374.145 192.653L372.898 181.559L341.558 200.427L310.219 219.295L308.761 308.115L307.303 396.936L269.649 419.647L231.994 442.358V479.832V517.305L249.606 507.736C259.293 502.473 276.566 492.774 287.99 486.183Z" fill="#E6573D" fill-opacity="0.8"/>
<path d="M295.687 217.291C293.086 214.946 234.369 181.396 232.866 181.396C232.387 181.396 232.013 198.669 232.035 219.781L232.075 258.165L264.589 275.8L297.102 293.434L297.631 256.477C298.032 228.478 297.561 218.98 295.687 217.291Z" fill="#E6E6E6"/>
<path d="M318.226 201.476C344.499 185.755 366.033 171.205 365.148 169.773C364.283 168.373 348.285 158.596 314.689 138.936L301.181 131.03L294.282 135.224C290.488 137.531 276.165 146.339 262.453 154.798L237.523 170.177L243.99 174.157C259.919 183.96 303.096 208.424 304.622 208.51C305.551 208.562 311.673 205.397 318.226 201.476Z" fill="#B3B3B3"/>
<path d="M408.47 325.854C418.836 319.791 431.463 312.576 436.532 309.82C441.6 307.064 445.729 304.371 445.708 303.837C445.622 301.709 397.965 274.482 389.774 271.882C385.656 270.575 385.531 270.99 385.531 285.916C385.531 303.685 387.687 336.877 388.84 336.877C389.272 336.877 398.105 331.916 408.47 325.854Z" fill="#B3B3B3"/>
<path d="M93.8398 422.119C101.948 417.694 114.934 409.706 122.698 404.367L136.815 394.66L108.18 378.401C92.43 369.459 78.3293 362.142 76.8446 362.142C74.6173 362.142 74.2674 368.088 74.8437 396.142C75.2287 414.879 76.3404 430.147 77.32 430.154C78.2978 430.159 85.7317 426.544 93.8398 422.119Z" fill="#E6573D" fill-opacity="0.8"/>
<path d="M64.8531 386.551C64.8531 363.632 65.5595 344.443 66.4228 343.91C67.9466 342.968 95.1846 357.854 177.543 404.637C199.437 417.074 218.041 427.547 218.885 427.911C219.728 428.276 220.181 411.665 219.89 391L219.362 353.427L183.407 332.666C122.202 297.327 115.775 293.58 90.4377 278.468L65.8249 263.788L64.8531 219.265L63.8814 174.742L47.3616 165.176C38.2757 159.915 24.3904 151.792 16.5053 147.125C8.62023 142.458 1.84227 138.639 1.44316 138.639C0.209254 138.639 1.12611 368.13 2.41657 382.287L3.63279 395.629L32.7607 411.925C48.7811 420.888 62.5557 428.221 63.3709 428.221C64.1862 428.221 64.8531 409.469 64.8531 386.551Z" fill="#E6E6E6"/>
<path d="M272.403 405.739L296.097 392.266L296.135 364.086C296.156 348.586 296.632 332.844 297.194 329.103C299.273 315.245 296.956 315.674 263.819 335.289L232.966 353.551L232.438 391.076L231.909 428.601L240.309 423.906C244.929 421.324 259.371 413.149 272.403 405.739Z" fill="#E6573D" fill-opacity="0.8"/>
<path d="M259.266 324.087C276.519 313.846 290.214 305.047 289.7 304.533C287.394 302.227 250.993 281.716 237.891 275.34L223.381 268.279L215.541 272.737C183.332 291.053 162.037 304.465 162.086 306.404C162.145 308.72 221.269 342.44 225.574 342.613C226.852 342.665 242.014 334.328 259.266 324.087Z" fill="#B3B3B3"/>
<path d="M107.532 145.336C116.661 139.663 127.028 132.858 130.571 130.214L137.012 125.408L117.938 114.182C107.448 108.007 92.5815 100.052 84.9024 96.5041L70.9404 90.0526L60.6087 96.2425C54.9262 99.6468 40.805 108.326 29.2283 115.53C8.56581 128.387 8.26274 128.68 12.7085 131.496C15.1993 133.073 29.4185 141.384 44.3066 149.963L71.3759 165.563L81.1549 160.608C86.5333 157.882 98.403 151.01 107.532 145.336Z" fill="#B3B3B3"/>
<path d="M142.593 258.478V220.893L129.787 212.671C112.359 201.481 78.5357 182.614 77.5935 183.556C77.1725 183.977 76.5078 200.748 76.1164 220.825L75.4047 257.328L94.9086 269.369C111.034 279.324 140.251 295.816 142.107 296.012C142.375 296.04 142.593 279.15 142.593 258.478Z" fill="#E6E6E6"/>
<path d="M200.898 270.337L219.362 259.899L219.887 219.605L220.413 179.312L214.057 182.525C205.715 186.741 157.898 216.322 154.635 219.285C152.627 221.109 152.385 229.307 153.472 258.799L154.842 296.011L168.639 288.393C176.227 284.203 190.744 276.078 200.898 270.337Z" fill="#E6573D" fill-opacity="0.8"/>
<path d="M423.915 227.98L451.61 211.668V174.143V136.617L443.35 140.766C438.808 143.049 424.407 151.156 411.349 158.783L387.607 172.651L387.541 211.258L387.475 249.866L391.848 247.078C394.253 245.545 408.683 236.951 423.915 227.98Z" fill="#E6573D" fill-opacity="0.8"/>
<path d="M225.828 163.3L301.916 118.966L341.195 141.285C386.944 167.28 376.86 167.309 419.053 141.067L445.773 124.448L416.138 107.573C286.926 33.9935 237.278 6.05418 231.309 3.5604L224.376 0.663208L201.462 14.4777C188.859 22.0756 175.181 30.7563 171.065 33.7681C164.185 38.8026 163.872 39.4222 167.178 41.4524C169.156 42.6669 184.696 51.6935 201.713 61.5115C218.729 71.3295 232.722 80.1148 232.809 81.0344C232.895 81.9539 199.414 102.853 158.405 127.477C108.524 157.429 84.7222 172.744 86.4958 173.747C87.9539 174.572 102.266 182.749 118.299 191.917C134.333 201.086 147.967 208.373 148.596 208.111C149.225 207.848 183.979 187.683 225.828 163.3Z" fill="#B3B3B3"/>
<path d="M188.799 96.8719C202.989 88.5415 214.359 81.5308 214.065 81.2926C212.715 80.1975 155.946 47.2947 155.407 47.2947C153.477 47.2947 152.531 71.0779 153.609 92.5076C154.846 117.117 154.888 117.293 158.928 114.666C161.168 113.21 174.61 105.202 188.799 96.8719Z" fill="#E6E6E6"/>
</svg>
