<svg width="451" height="517" viewBox="0 0 451 517" fill="none" xmlns="http://www.w3.org/2000/svg">
<path d="M219.876 480.432C220.645 456.009 220.334 443.151 218.92 440.885C217.767 439.039 205.363 431.569 191.355 424.285C177.348 417.002 163.566 409.435 160.728 407.471C157.891 405.506 155.03 403.899 154.371 403.899C153.712 403.899 153.409 421.073 153.699 442.064L154.226 480.229L185.322 498.222C202.425 508.118 216.94 516.306 217.577 516.418C218.214 516.531 219.248 500.337 219.876 480.432Z" fill="#E6E6E6"/>
<path d="M286.99 485.183C298.415 478.592 326.129 462.175 348.576 448.702C371.024 435.228 403.23 416.36 420.145 406.771L450.901 389.337L450.352 350.946C450.051 329.831 449.617 312.555 449.388 312.555C449.16 312.555 433.01 321.738 413.5 332.961C393.99 344.185 377.305 353.368 376.421 353.368C375.537 353.368 374.719 319.478 374.603 278.057C374.486 236.636 373.831 197.754 373.145 191.653L371.898 180.559L340.558 199.427L309.219 218.295L307.761 307.115L306.303 395.936L268.649 418.647L230.994 441.358V478.832V516.305L248.606 506.736C258.293 501.473 275.566 491.774 286.99 485.183Z" fill="#E6573D" fill-opacity="0.8"/>
<path d="M294.687 216.291C292.086 213.946 233.369 180.396 231.866 180.396C231.387 180.396 231.013 197.669 231.035 218.781L231.075 257.165L263.589 274.8L296.102 292.434L296.631 255.477C297.032 227.478 296.561 217.98 294.687 216.291Z" fill="#E6E6E6"/>
<path d="M317.226 200.476C343.499 184.755 365.033 170.205 364.148 168.773C363.283 167.373 347.285 157.596 313.689 137.936L300.181 130.03L293.282 134.224C289.488 136.531 275.165 145.339 261.453 153.798L236.523 169.177L242.99 173.157C258.919 182.96 302.096 207.424 303.622 207.51C304.551 207.562 310.673 204.397 317.226 200.476Z" fill="#B3B3B3"/>
<path d="M407.47 324.854C417.836 318.791 430.463 311.576 435.532 308.82C440.6 306.064 444.729 303.371 444.708 302.837C444.622 300.709 396.965 273.482 388.774 270.882C384.656 269.575 384.531 269.99 384.531 284.916C384.531 302.685 386.687 335.877 387.84 335.877C388.272 335.877 397.105 330.916 407.47 324.854Z" fill="#B3B3B3"/>
</svg>
