<svg width="451" height="517" viewBox="0 0 451 517" fill="none" xmlns="http://www.w3.org/2000/svg">
<path d="M141.593 258.478V220.893L128.787 212.671C111.359 201.481 77.5357 182.614 76.5935 183.556C76.1725 183.977 75.5078 200.748 75.1164 220.825L74.4047 257.328L93.9086 269.369C110.034 279.324 139.251 295.816 141.107 296.012C141.375 296.04 141.593 279.15 141.593 258.478Z" fill="#E6E6E6"/>
<path d="M199.898 270.337L218.362 259.899L218.887 219.605L219.413 179.312L213.057 182.525C204.715 186.741 156.898 216.322 153.635 219.285C151.627 221.109 151.385 229.307 152.472 258.799L153.842 296.011L167.639 288.393C175.227 284.203 189.744 276.078 199.898 270.337Z" fill="#E6573D" fill-opacity="0.8"/>
<path d="M422.915 227.98L450.61 211.668V174.143V136.617L442.35 140.766C437.808 143.049 423.407 151.156 410.349 158.783L386.607 172.651L386.541 211.258L386.475 249.866L390.848 247.078C393.253 245.545 407.683 236.951 422.915 227.98Z" fill="#E6573D" fill-opacity="0.8"/>
<path d="M224.828 163.3L300.916 118.966L340.195 141.285C385.944 167.28 375.86 167.309 418.053 141.067L444.773 124.448L415.138 107.573C285.926 33.9935 236.278 6.05418 230.309 3.5604L223.376 0.663208L200.462 14.4777C187.859 22.0756 174.181 30.7563 170.065 33.7681C163.185 38.8026 162.872 39.4222 166.178 41.4524C168.156 42.6669 183.696 51.6935 200.713 61.5115C217.729 71.3295 231.722 80.1148 231.809 81.0344C231.895 81.9539 198.414 102.853 157.405 127.477C107.524 157.429 83.7222 172.744 85.4958 173.747C86.9539 174.572 101.266 182.749 117.299 191.917C133.333 201.086 146.967 208.373 147.596 208.111C148.225 207.848 182.979 187.683 224.828 163.3Z" fill="#B3B3B3"/>
<path d="M187.799 96.8719C201.989 88.5415 213.359 81.5308 213.065 81.2926C211.715 80.1975 154.946 47.2947 154.407 47.2947C152.477 47.2947 151.531 71.0779 152.609 92.5076C153.846 117.117 153.888 117.293 157.928 114.666C160.168 113.21 173.61 105.202 187.799 96.8719Z" fill="#E6E6E6"/>
</svg>
