<svg width="59" height="112" viewBox="0 0 59 112" fill="none" xmlns="http://www.w3.org/2000/svg">
<path d="M14.3148 0H0V106.146C0 109.379 2.59821 112 5.80328 112H14.3148V0Z" fill="#121212"/>
<path d="M36.5607 7.21951H22.4393V112H36.5607V7.21951Z" fill="#121212"/>
<path d="M59 16.9756H44.8787V112H59V16.9756Z" fill="#121212"/>
<path d="M59 5.85366C59 2.62077 56.4018 0 53.1967 0H35.5934C32.3884 0 29.7902 2.62077 29.7902 5.85366V6.2439H59V5.85366Z" fill="#121212"/>
<path d="M29.7902 5.85366C29.7902 2.62077 27.1919 0 23.9869 0H2.90164V6.2439H29.7902V5.85366Z" fill="#121212"/>
<path d="M59 6.2439H50.8754V24.7805H59V6.2439Z" fill="#121212"/>
<path d="M58.0328 6.2439H11.0262V14.439H58.0328V6.2439Z" fill="#121212"/>
<path d="M44.8895 16.9457L46.564 20.679L55.9049 16.4162L54.2304 12.6829L44.8895 16.9457Z" fill="#121212"/>
</svg>
