<svg width="452" height="517" viewBox="0 0 452 517" fill="none" xmlns="http://www.w3.org/2000/svg">
<path d="M93.8398 421.119C101.948 416.694 114.934 408.706 122.698 403.367L136.815 393.66L108.18 377.401C92.43 368.459 78.3293 361.142 76.8446 361.142C74.6173 361.142 74.2674 367.088 74.8437 395.142C75.2287 413.879 76.3404 429.147 77.32 429.154C78.2978 429.159 85.7317 425.544 93.8398 421.119Z" fill="#E6573D" fill-opacity="0.8"/>
<path d="M64.8531 385.551C64.8531 362.632 65.5595 343.443 66.4228 342.91C67.9466 341.968 95.1846 356.854 177.543 403.637C199.437 416.074 218.041 426.547 218.885 426.911C219.728 427.276 220.181 410.665 219.89 390L219.362 352.427L183.407 331.666C122.202 296.327 115.775 292.58 90.4377 277.468L65.8249 262.788L64.8531 218.265L63.8814 173.742L47.3616 164.176C38.2757 158.915 24.3904 150.792 16.5053 146.125C8.62023 141.458 1.84227 137.639 1.44316 137.639C0.209254 137.639 1.12611 367.13 2.41657 381.287L3.63279 394.629L32.7607 410.925C48.7811 419.888 62.5557 427.221 63.3709 427.221C64.1862 427.221 64.8531 408.469 64.8531 385.551Z" fill="#E6E6E6"/>
<path d="M272.403 404.739L296.097 391.266L296.135 363.086C296.156 347.586 296.632 331.844 297.194 328.103C299.273 314.245 296.956 314.674 263.819 334.289L232.966 352.551L232.438 390.076L231.909 427.601L240.309 422.906C244.929 420.324 259.371 412.149 272.403 404.739Z" fill="#E6573D" fill-opacity="0.8"/>
<path d="M259.266 323.087C276.519 312.846 290.214 304.047 289.7 303.533C287.394 301.227 250.993 280.716 237.891 274.34L223.381 267.279L215.541 271.737C183.332 290.053 162.037 303.465 162.086 305.404C162.145 307.72 221.269 341.44 225.574 341.613C226.852 341.665 242.014 333.328 259.266 323.087Z" fill="#B3B3B3"/>
<path d="M107.532 144.336C116.661 138.663 127.028 131.858 130.571 129.214L137.012 124.408L117.938 113.182C107.448 107.007 92.5815 99.0525 84.9024 95.5041L70.9404 89.0526L60.6087 95.2425C54.9262 98.6468 40.805 107.326 29.2283 114.53C8.56581 127.387 8.26274 127.68 12.7085 130.496C15.1993 132.073 29.4185 140.384 44.3066 148.963L71.3759 164.563L81.1549 159.608C86.5333 156.882 98.403 150.01 107.532 144.336Z" fill="#B3B3B3"/>
</svg>
