<svg width="48" height="48" viewBox="0 0 48 48" fill="none" xmlns="http://www.w3.org/2000/svg">
<path d="M23.9998 30.6C25.8331 30.6 27.3915 29.9584 28.6748 28.675C29.9581 27.3917 30.5998 25.8334 30.5998 24C30.5998 22.1667 29.9581 20.6084 28.6748 19.3251C27.3915 18.0417 25.8331 17.4 23.9998 17.4C22.1665 17.4 20.6081 18.0417 19.3248 19.3251C18.0415 20.6084 17.3998 22.1667 17.3998 24C17.3998 25.8334 18.0415 27.3917 19.3248 28.675C20.6081 29.9584 22.1665 30.6 23.9998 30.6ZM23.9998 34C21.2331 34 18.8748 33.0251 16.9248 31.0751C14.9748 29.1251 13.9998 26.7667 13.9998 24C13.9998 21.2334 14.9748 18.875 16.9248 16.925C18.8748 14.975 21.2331 14 23.9998 14C26.7665 14 29.1248 14.975 31.0748 16.925C33.0248 18.875 33.9998 21.2334 33.9998 24C33.9998 26.7667 33.0248 29.1251 31.0748 31.0751C29.1248 33.0251 26.7665 34 23.9998 34ZM3.4998 25.7001C3.03314 25.7001 2.63314 25.5334 2.2998 25.2001C1.96647 24.8667 1.7998 24.4667 1.7998 24C1.7998 23.5 1.96647 23.0917 2.2998 22.775C2.63314 22.4584 3.03314 22.3 3.4998 22.3H8.4998C8.96647 22.3 9.36647 22.4667 9.6998 22.8C10.0331 23.1334 10.1998 23.5334 10.1998 24C10.1998 24.5 10.0331 24.9084 9.6998 25.225C9.36647 25.5417 8.96647 25.7001 8.4998 25.7001H3.4998ZM39.4998 25.7001C39.0331 25.7001 38.6331 25.5334 38.2998 25.2001C37.9665 24.8667 37.7998 24.4667 37.7998 24C37.7998 23.5 37.9665 23.0917 38.2998 22.775C38.6331 22.4584 39.0331 22.3 39.4998 22.3H44.4998C44.9665 22.3 45.3665 22.4667 45.6998 22.8C46.0331 23.1334 46.1998 23.5334 46.1998 24C46.1998 24.5 46.0331 24.9084 45.6998 25.225C45.3665 25.5417 44.9665 25.7001 44.4998 25.7001H39.4998ZM23.9998 10.2C23.4998 10.2 23.0915 10.0334 22.7748 9.70005C22.4581 9.36672 22.2998 8.96672 22.2998 8.50005V3.50005C22.2998 3.03338 22.4665 2.63338 22.7998 2.30005C23.1331 1.96672 23.5331 1.80005 23.9998 1.80005C24.4998 1.80005 24.9081 1.96672 25.2248 2.30005C25.5415 2.63338 25.6998 3.03338 25.6998 3.50005V8.50005C25.6998 8.96672 25.5331 9.36672 25.1998 9.70005C24.8665 10.0334 24.4665 10.2 23.9998 10.2ZM23.9998 46.2001C23.4998 46.2001 23.0915 46.0334 22.7748 45.7001C22.4581 45.3667 22.2998 44.9667 22.2998 44.5V39.5C22.2998 39.0334 22.4665 38.6334 22.7998 38.3C23.1331 37.9667 23.5331 37.8 23.9998 37.8C24.4998 37.8 24.9081 37.9667 25.2248 38.3C25.5415 38.6334 25.6998 39.0334 25.6998 39.5V44.5C25.6998 44.9667 25.5331 45.3667 25.1998 45.7001C24.8665 46.0334 24.4665 46.2001 23.9998 46.2001ZM11.8498 14.25L8.9998 11.45C8.66647 11.1167 8.50814 10.7084 8.5248 10.225C8.54147 9.74172 8.6998 9.33338 8.9998 9.00005C9.33314 8.66672 9.73314 8.50005 10.1998 8.50005C10.6665 8.50005 11.0831 8.66672 11.4498 9.00005L14.2498 11.85C14.5498 12.1834 14.6998 12.5834 14.6998 13.05C14.6998 13.5167 14.5498 13.9 14.2498 14.2C13.9498 14.5334 13.5581 14.7084 13.0748 14.725C12.5915 14.7417 12.1831 14.5834 11.8498 14.25ZM36.5498 39L33.7498 36.1501C33.4498 35.8167 33.2998 35.4167 33.2998 34.9501C33.2998 34.4834 33.4498 34.0834 33.7498 33.75C34.0831 33.4167 34.4831 33.25 34.9498 33.25C35.4165 33.25 35.8165 33.4167 36.1498 33.75L38.9998 36.55C39.3331 36.8834 39.4915 37.2917 39.4748 37.7751C39.4581 38.2584 39.2998 38.6667 38.9998 39C38.6665 39.3334 38.2665 39.5 37.7998 39.5C37.3331 39.5 36.9165 39.3334 36.5498 39ZM33.7498 14.25C33.4165 13.9167 33.2498 13.5167 33.2498 13.05C33.2498 12.5834 33.4165 12.1834 33.7498 11.85L36.5498 9.00005C36.8831 8.66672 37.2915 8.50838 37.7748 8.52505C38.2581 8.54171 38.6665 8.70005 38.9998 9.00005C39.3331 9.33338 39.4998 9.73338 39.4998 10.2C39.4998 10.6667 39.3331 11.0834 38.9998 11.45L36.1498 14.25C35.8498 14.55 35.4665 14.7 34.9998 14.7C34.5331 14.7 34.1165 14.55 33.7498 14.25ZM8.9998 39C8.66647 38.6667 8.4998 38.2667 8.4998 37.8C8.4998 37.3334 8.66647 36.9167 8.9998 36.55L11.8498 33.75C12.1831 33.4167 12.5748 33.25 13.0248 33.25C13.4748 33.25 13.8665 33.4167 14.1998 33.75C14.5665 34.0834 14.7498 34.4834 14.7498 34.9501C14.7498 35.4167 14.5831 35.8167 14.2498 36.1501L11.4498 39C11.1165 39.3334 10.7081 39.4917 10.2248 39.475C9.74147 39.4584 9.33314 39.3 8.9998 39Z" fill="white"/>
</svg>
