<svg width="22" height="42" viewBox="0 0 22 42" fill="none" xmlns="http://www.w3.org/2000/svg">
<path d="M5.3377 0H-5.88596e-07V39.8049C-5.88596e-07 41.0172 0.968826 42 2.16393 42H5.3377V0Z" fill="#121212"/>
<path d="M13.6328 2.70732H8.36721V42H13.6328V2.70732Z" fill="#121212"/>
<path d="M22 6.36585H16.7344V42H22V6.36585Z" fill="#121212"/>
<path d="M22 2.19512C22 0.98279 21.0312 0 19.8361 0H13.2721C12.077 0 11.1082 0.98279 11.1082 2.19512V2.34146H22V2.19512Z" fill="#121212"/>
<path d="M11.1082 2.19512C11.1082 0.98279 10.1394 0 8.94426 0H1.08197V2.34146H11.1082V2.19512Z" fill="#121212"/>
<path d="M22 2.34146H18.9705V9.29268H22V2.34146Z" fill="#121212"/>
<path d="M21.6393 2.34146H4.11147V5.41463H21.6393V2.34146Z" fill="#121212"/>
<path d="M16.7385 6.35465L17.3629 7.75462L20.8459 6.15607L20.2215 4.7561L16.7385 6.35465Z" fill="#121212"/>
</svg>
